<?xml version="1.0" encoding="utf-8"?>
<!-- Generator: Adobe Illustrator 21.0.0, SVG Export Plug-In . SVG Version: 6.00 Build 0)  -->
<svg version="1.1" xmlns="http://www.w3.org/2000/svg" xmlns:xlink="http://www.w3.org/1999/xlink" x="0px" y="0px"
	 viewBox="0 0 169 177" style="enable-background:new 0 0 169 177;" xml:space="preserve">
<style type="text/css">
	.st0{fill:#FFFFFF;}
	.st1{fill:#FEFEFE;}
	.st2{fill:#D30939;}
	.st3{fill:#005CA5;}
</style>
<g id="Laag_1">
	<title>Page 1</title>
	<desc>Created with Sketch.</desc>
	<g id="Clip-4">
	</g>
</g>
<g id="Laag_2">
	<g>
		<g>
			<polygon id="path-1" class="st0" points="8.5,164.3 164.3,164.3 164.3,11.3 8.5,11.3 			"/>
		</g>
		<path id="Fill-1" class="st1" d="M159.2,90.5c0,40-33.1,72.5-73.9,72.5s-73.9-32.5-73.9-72.5s33.1-72.5,73.9-72.5
			C126.1,18.1,159.2,50.5,159.2,90.5"/>
		<path id="Fill-3" class="st2" d="M86.4,147.3c-33.6,0-60.7-26.7-60.7-59.6s27.2-59.5,60.7-59.5s60.7,26.7,60.7,59.6
			S120,147.3,86.4,147.3 M86.4,11.3c-43.1,0-77.9,34.2-77.9,76.5s34.9,76.5,77.9,76.5s77.9-34.2,77.9-76.5S129.5,11.3,86.4,11.3"/>
		<path id="Fill-6" class="st3" d="M19.7,84.1c-0.6,1.6-0.5,4.5,0.6,5.9c2.4,3.4,8.2,2.2,11.6,0.5c1.8-1,3.5-2.9,4.3-3.4
			c0,0,0.3-0.2,1.6-0.6c1.3-0.5,3.5-1.1,4.5-1.3c1.6-0.2,3.1-0.2,4.7-0.2c-3.4,1.3-5,1.1-8,3.1c-0.5,0.3-1.1,0.8-1.4,1.1
			c-8.2,6.1-2.9,14.1-15.6,16.6c1.8,2.9,7.7,2.7,11.7-0.2c1.6-1.1,2.7-2.6,3.9-4c1-1.3,2.7-2.9,4.5-3.7c0.5-0.3,0.8-0.3,1.3-0.5
			c2.2-0.6,3.9-1.4,6.6-1.8c-0.5,0.5-1.9,1-3.1,1.6L44,99.1l-0.6,0.5c-0.3,0.3-0.3,0.3-0.6,0.5c-2.2,2.1-3.9,4.8-4.8,8
			c-0.8,2.6-1.6,7.7-0.6,10.8c0.5-3.1,1.4-5.3,2.7-7.6c0.8-1.3,4.3-5.1,6.9-6.3c1.4-0.6,2.2-1,4.2-1.4l0.8-0.2
			c0.5-3.7,2.1-7.1,4.7-9.8c1-1,2.1-1.9,3.4-2.7c10.4-19.8,45.6-19.8,55.1,0c0.5,0.3,1.1,0.8,1.6,1.3c3.2,3.1,5.1,7.1,5.5,11.6
			l1.3,0.3c1.6,0.3,2.7,0.6,4.2,1.3c0.2,0,0.5,0.2,0.6,0.3c0,0,0.2,0.2,0.3,0.2c2.6,1.4,5.3,4.5,6.1,5.9c1.3,2.2,2.2,4.5,2.7,7.6
			c1-2.9,0.2-8.2-0.6-10.8c-1-3.2-2.6-5.9-4.8-8c-0.3-0.2-0.3-0.3-0.6-0.5l-0.6-0.5c0,0-0.2,0-0.2-0.2c-0.6-0.6-1.6-1.1-2.6-1.8
			c-1-0.6-2.4-1.1-3.1-1.6c2.6,0.3,4.3,1.1,6.6,1.8c0.5,0.2,0.6,0.2,1.3,0.6c1.9,0.8,3.4,2.2,4.3,3.5c1.1,1.4,2.2,2.9,3.9,4
			c4,2.9,10,3.1,11.7,0.2c-12.7-2.4-7.2-9.8-15.6-16.6c-0.5-0.3-0.3-0.3-0.6-0.5c-0.2-0.2-0.2-0.2-0.3-0.2c-0.5-0.3-0.3-0.2-0.5-0.3
			c-3.2-1.8-4.7-1.8-7.9-3.1c1.4-0.2,3.1,0,4.7,0.2c3.7,0.5,6.1,1.9,6.1,1.9c1.3,0.6,2.7,2.4,4.3,3.4c3.2,1.8,9,2.9,11.6-0.5
			c1.1-1.6,1.3-4.3,0.6-5.9c-0.5,0.5-0.8,1.4-1.1,1.9c-1.3,1.9-3.4,3.5-5.9,2.9c-2.2-0.5-6.7-4-7.9-5.3l-1.4-1.1
			c-1.1-1-2.2-1.9-3.4-3.1l-3.5-2.9c1.4,0.2,2.9,0.2,4.5,0.3c1.6,0.2,4.3,0.8,4.7,1c0.5,0.2,1,0.5,1.3,0.5c0,0,0-0.2-0.8-1
			c-0.8-1-2.2-2.6-5.6-4.3c-5.1-2.9-11.1-4.2-17-4c-3.7,0.2-6.1,0.8-8,0.8c1.1-3.1,6.7-1.9,11.7-4.8c2.9-1.8,7.4-4.5,8.2-10
			c-1.3,0.6-2.2,1.8-3.9,2.6c-3.4,1.8-6.4,1.6-10.1,1.8c-2.1,0-3.4,0.5-5,1c1-1.3,6.7-5.3,8.7-10.4c1.4-3.7-1-11.9-2.4-14.1
			c-1.1,10.3-4,12.7-12.2,15.9c-1.3,0.5-2.4,1-3.7,1.6c-3.9,1.8-4.2,2.6-6.1,5c0.2-2.4,1.1-4.5,2.2-6.4c4.8-7.7,5.9-8.4,0.5-19.9
			c-0.3,27.5-25.1,0.2-19.4,25.9c-1.9-2.4-2.2-3.2-6.1-5c-1.3-0.6-2.4-1.1-3.7-1.6c-8.2-3.2-11.1-5.6-12.2-15.9
			c-1.4,2.2-3.9,10.4-2.4,14.1c1.9,5.1,7.7,9.2,8.7,10.4c-1.6-0.5-3.1-1-5-1c-3.9,0-6.7,0-10.1-1.8c-1.6-0.8-2.6-1.8-3.9-2.6
			c0.8,5.5,5.3,8.4,8.2,10c5,2.9,10.6,1.8,11.7,4.8c-1.9-0.2-4.3-0.8-8-0.8c-5.9-0.2-11.9,1-17,4c-3.2,1.9-4.5,3.2-5.6,4.3l-0.8,1
			c0.6,0,1.9-1,5.9-1.4c1.6-0.2,3.1-0.3,4.5-0.3l-3.5,2.9c-1.1,1-2.2,2.1-3.4,3.1l-1.3,1c-1.3,1.3-5.6,4.8-7.9,5.3
			c-2.7,0.5-4.7-1.1-5.9-2.9C20.5,85.4,20.2,84.6,19.7,84.1"/>
		<path id="Fill-8" class="st3" d="M78.6,133.8c0.5-0.8,1.1-1.4,1.8-1.9c1.4-1.3,3.4-1.9,5.3-2.1c1.9-0.2,4,0.3,5.9,1.4
			c1,0.6,1.8,1.3,2.6,2.2c1,0.6,3.1-0.5,2.2-1.8c-1-1.1-2.1-2.1-3.2-2.9c-2.4-1.4-5.1-2.1-7.7-1.9c-2.6,0.2-5,1.1-7.1,2.7
			c-1,0.8-1.6,1.6-2.2,2.6C75.6,133.5,77.5,135.1,78.6,133.8"/>
		<path id="Fill-14" class="st3" d="M112.4,112.2c-2.1,2.1-4.8,3.4-7.9,3.4h-0.3c-2.7,0-5.3-1-7.4-2.7c-2.1-1.9-3.4-4.3-3.7-7.1
			v-0.6l0,0c0-3.1,1-5.8,3.1-7.9c2.1-2.1,4.8-3.4,7.7-3.4h0.6l0,0c3.2,0.2,5.3,1.1,7.4,3.1c2.1,1.9,3.4,4.7,3.5,7.6v0.6
			C115.5,107.7,114.4,110.3,112.4,112.2L112.4,112.2z M80.8,106.3c-0.2,2.9-1.4,5.3-3.5,7.2c-1.9,1.9-4.7,2.9-7.4,3.1h-0.3
			c-2.9,0-5.6-1.1-7.7-3.1c-2.1-2.1-3.4-4.8-3.5-7.7c0-2.9,1-5.8,3.1-7.9c2.1-2.1,4.8-3.4,7.9-3.4h0.3c2.9,0,5.6,1.1,7.7,3.1
			c2.1,2.1,3.4,4.8,3.5,7.7c0,0.2,0,0.3,0,0.5L80.8,106.3z M115.8,92.9c-3.1-2.9-7.1-4.5-11.4-4.5h-0.6c-4.3,0.2-8.4,1.9-11.4,5
			c-2.2,2.4-3.9,5.3-4.3,8.5l0,0.6h-0.8c-0.3,0-0.6,0-0.8,0h-0.6l-0.2-0.6c-0.6-3.2-2.4-6.1-4.8-8.4c-2.9-2.6-6.9-4.2-11.2-4.2H69
			c-4.3,0.2-8.5,1.9-11.6,5c-0.3,0.3-0.6,0.6-1,1.1c-0.2,0.2-0.2,0.3-0.3,0.3c-0.2,0.3-0.3,0.5-0.6,0.8c-0.2,0.2-0.2,0.3-0.3,0.5
			c-0.2,0.3-0.3,0.6-0.5,1c-0.2,0.2-0.2,0.3-0.3,0.5c-0.2,0.3-0.3,0.6-0.5,1c-0.2,0.2-0.2,0.5-0.2,0.6c-0.2,0.2-0.2,0.5-0.2,0.6
			s-0.2,0.5-0.2,0.6c0,0.2-0.2,0.5-0.2,0.6c-0.3,1.3-0.3,2.4-0.3,3.7c0.2,4.3,1.9,8.4,5.1,11.2c3.1,2.9,7.1,4.5,11.4,4.5H70
			c4-0.2,8-1.6,10.9-4.5c2.6-2.4,4.2-5.5,4.8-8.7l0.2-0.5l0.5-0.2c0.3-0.2,0.8-0.2,1.1-0.2H88l0.5,0.5c0.8,3.2,2.6,6.1,5.1,8.4
			c3.1,2.6,6.9,4,10.9,4h0.5c4.3-0.2,8.5-1.9,11.6-5c3.1-3.1,4.7-7.2,4.5-11.4l0,0C120.8,100,118.9,96,115.8,92.9L115.8,92.9z"/>
		<path class="st2" d="M76.2,108.5l-2.6-2.6l2.6-2.6c1.1-1.1,1.1-2.8,0-3.9l0,0c-1.1-1.1-2.8-1.1-3.9,0l-2.6,2.6l-2.6-2.6
			c-1.1-1.1-2.8-1.1-3.9,0c-1.1,1.1-1.1,2.8,0,3.9l2.6,2.6l-2.6,2.6c-1.1,1.1-1.1,2.8,0,3.9l0,0c1.1,1.1,2.8,1.1,3.9,0l2.6-2.6
			l2.6,2.6c1.1,1.1,2.8,1.1,3.9,0C77.3,111.3,77.3,109.6,76.2,108.5z"/>
		<path class="st2" d="M111.1,107.6l-2.6-2.6l2.6-2.6c1.1-1.1,1.1-2.8,0-3.9l0,0c-1.1-1.1-2.8-1.1-3.9,0l-2.6,2.6l-2.6-2.6
			c-1.1-1.1-2.8-1.1-3.9,0c-1.1,1.1-1.1,2.8,0,3.9l2.6,2.6l-2.6,2.6c-1.1,1.1-1.1,2.8,0,3.9l0,0c1.1,1.1,2.8,1.1,3.9,0l2.6-2.6
			l2.6,2.6c1.1,1.1,2.8,1.1,3.9,0C112.1,110.4,112.1,108.6,111.1,107.6z"/>
	</g>
</g>
</svg>
