<?xml version="1.0" encoding="utf-8"?>
<!-- Generator: Adobe Illustrator 21.0.0, SVG Export Plug-In . SVG Version: 6.00 Build 0)  -->
<svg version="1.1" id="Laag_1" xmlns="http://www.w3.org/2000/svg" xmlns:xlink="http://www.w3.org/1999/xlink" x="0px" y="0px"
	 viewBox="0 0 269.3 269.3" style="enable-background:new 0 0 269.3 269.3;" xml:space="preserve">
<style type="text/css">
	.st0{fill:#9AC8DE;}
	.st1{fill:#FFFFFF;}
	.st2{fill:#0064B1;}
	.st3{clip-path:url(#SVGID_2_);fill:#0064B1;}
</style>
<ellipse class="st0" cx="135.6" cy="135.6" rx="127.6" ry="127.6"/>
<ellipse class="st1" cx="134.6" cy="134.6" rx="119.5" ry="119.5"/>
<path class="st2" d="M31.4,128.7c-1,2.6-0.7,7,1.1,9.4c3.8,5.3,12.8,3.5,17.8,0.6c2.6-1.5,5.4-4.6,6.8-5.2c0,0,0.4-0.3,2.4-1.1
	s5.4-1.8,7-2c2.5-0.3,4.8-0.4,7.1-0.2c-5.1,2-7.8,1.9-12.5,4.9c-0.9,0.5-1.7,1.2-2.3,1.7c-12.7,9.6-4.4,22.4-24.2,26.1
	c2.8,4.5,11.9,4.4,18.2-0.3c2.5-1.9,4.2-4,5.9-6.4c1.5-2,4.3-4.6,7-5.9c0.9-0.4,1.2-0.5,1.9-0.8c3.5-1.1,6.1-2.3,10.2-2.8
	c-0.8,0.9-3,1.6-4.6,2.6l-4.1,3l-0.9,0.8c-0.5,0.4-0.5,0.5-1,0.9c-3.4,3.4-5.9,7.5-7.5,12.6c-1.2,3.9-2.5,12.2-1,16.9
	c0.8-4.8,2.2-8.4,4.2-11.9c1.2-2.1,6.7-8,10.8-10c2.2-1,3.6-1.6,6.3-2.3l1.2-0.3c0.7-5.8,3.2-11.2,7.3-15.5c1.6-1.6,3.3-3,5.2-4.2
	c16.2-31.2,70.5-31.3,85.4-0.1c0.8,0.6,1.7,1.2,2.4,1.9c5.1,4.8,8,11.3,8.4,18.2l2.1,0.5c2.6,0.5,4.2,1.1,6.4,2.1
	c0.2,0.1,0.7,0.3,0.9,0.5c0.1,0,0.3,0.2,0.4,0.3c4,2.2,8.3,7.2,9.5,9.3c2,3.5,3.4,7.1,4.2,11.9c1.5-4.7,0.2-13-1-16.9
	c-1.5-5.1-4.1-9.3-7.5-12.6c-0.5-0.4-0.6-0.4-1-0.9l-0.9-0.8c0-0.1-0.1-0.1-0.2-0.2c-1-1.1-2.4-1.9-3.9-2.8c-1.6-1-3.8-1.7-4.6-2.6
	c4.1,0.5,6.6,1.7,10.2,2.8c0.6,0.4,1,0.4,2.1,1c3,1.3,5.3,3.6,6.8,5.7c1.7,2.4,3.4,4.5,5.9,6.4c6.2,4.6,15.4,4.8,18.2,0.3
	c-19.8-3.7-11.1-15.5-24.2-26.1c-0.7-0.4-0.5-0.4-1.1-0.8c-0.2-0.2-0.3-0.2-0.6-0.4c-0.6-0.4-0.5-0.4-0.8-0.6
	c-4.9-2.9-7.1-2.8-12.2-4.8c2.3-0.2,4.6-0.1,7.1,0.2c5.6,0.6,9.4,3,9.4,3c2.1,1,4.1,3.8,6.8,5.3c5,2.9,14,4.7,17.8-0.6
	c1.7-2.4,2-6.8,1.1-9.4c-0.8,0.8-1.2,2.2-1.8,3.1c-2,3-5.1,5.5-9.3,4.6c-3.5-0.7-10.4-6.2-12.3-8.3l-1.9-1.6
	c-1.8-1.5-3.5-3.1-5.3-4.7l-5.6-4.6c2.3,0.2,4.6,0.3,7,0.6c2.6,0.4,6.7,1.3,7.3,1.5s1.4,0.7,2,0.8c0,0,0-0.2-1.2-1.6
	s-3.6-3.9-8.6-6.9c-8-4.7-17.1-6.6-26.4-6.3c-5.8,0.2-9.3,1.2-12.4,1.4c1.8-4.8,10.4-3,18.1-7.6c4.6-2.8,11.3-7.2,12.7-15.8
	c-2,1.1-3.6,2.7-6.1,3.9c-5.3,2.7-9.9,2.6-15.7,2.7c-3.1,0-5.2,0.7-7.7,1.4c1.6-2.2,10.5-8.4,13.4-16.5c2.2-5.9-1.5-18.8-3.8-22.4
	c-1.8,16.3-6.2,20-18.9,25.2c-2,0.8-3.6,1.6-5.6,2.5c-5.9,2.7-6.4,4.1-9.5,7.9c0.2-3.8,1.7-7.2,3.4-10.1c7.4-12.2,9.1-13.3,0.8-31.3
	c-0.6,43.3-38.9,0.3-30,40.9c-3.1-3.8-3.6-5.2-9.5-7.9c-2-0.9-3.7-1.7-5.6-2.5c-12.8-5.2-17.1-9-18.9-25.2c-2.3,3.6-6,16.5-3.8,22.4
	c3,8.1,11.9,14.3,13.4,16.5c-2.5-0.7-4.6-1.4-7.7-1.4c-5.9-0.1-10.5,0-15.7-2.7c-2.5-1.3-4-2.8-6.1-3.9c1.3,8.6,8.1,13.1,12.7,15.8
	c7.7,4.6,16.3,2.8,18.1,7.6c-3.1-0.2-6.6-1.2-12.4-1.4c-9.3-0.3-18.4,1.6-26.4,6.3c-5.1,3-6.9,5-8.6,6.9l-1.2,1.6
	c0.9-0.1,3.1-1.5,9.3-2.3c2.4-0.3,4.7-0.4,7-0.6l-5.6,4.6c-1.8,1.6-3.5,3.3-5.3,4.7l-1.9,1.6c-1.9,2-8.7,7.6-12.3,8.3
	c-4.2,0.8-7.3-1.7-9.3-4.6C32.6,130.9,32.2,129.5,31.4,128.7z"/>
<path class="st2" d="M146.5,197c-0.7,1.2-1.7,2.2-2.7,3.1c-2.3,1.9-5.2,3.1-8.2,3.3c-3.1,0.2-6.3-0.5-9.2-2.3
	c-1.4-0.9-2.8-2.1-4-3.6c-1.4-1-4.6,0.8-3.4,2.9c1.5,1.8,3.3,3.3,5.1,4.5c3.7,2.4,7.9,3.3,11.9,3s7.8-1.8,10.8-4.3
	c1.4-1.2,2.6-2.5,3.6-4.1C151.2,197.6,148.1,194.9,146.5,197z"/>
<path class="st2" d="M116.5,161H112v-5.3c0-0.7-0.5-1.3-1-1.8c-1-1-3-1-3.9,0c-0.5,0.5-1,1.1-1,1.8v5.3h-4.7c-0.7,0-1.3,0.1-1.8,0.6
	s-0.8,1.1-0.8,1.8s0.3,1.9,0.8,2.4s1.1,1.3,1.8,1.3h4.7v3.9c0,0.7,0.4,1.3,0.9,1.8s1.2,0.8,1.9,0.8c0.7,0,1.6-0.3,2.1-0.8
	s1-1.1,1-1.8v-4h4.5c0.7,0,1.4-0.8,1.8-1.3c0.5-0.5,0.8-1.4,0.8-2.1c0-0.7-0.3-1.3-0.8-1.8C117.8,161.3,117.2,161,116.5,161z"/>
<path class="st2" d="M167.2,158h-10.1c-1.6,0-2.7,0.5-3.5,1.3c-0.8,0.7-1.2,1.7-1.2,2.9c0,1.1,0.4,2.6,1.2,3.3s2,1.6,3.5,1.6h10.1
	c1.6,0,2.8-0.8,3.5-1.5c0.8-0.7,1.2-1.9,1.2-3s-0.4-2.4-1.2-3.1C170,158.7,168.8,158,167.2,158z"/>
<path class="st2" d="M180,142.8c-4.8-4.5-11-7-17.6-7h-0.9c-6.7,0.2-13,3-17.6,7.9c-3.6,3.7-5.9,8.4-6.7,13.5l-0.1,0.9h-1.2
	c-0.4,0-0.9,0-1.3,0.1l-1,0.1l-0.2-0.9c-1.1-5-3.6-9.6-7.4-13.2c-4.8-4.5-11-7-17.5-7h-0.7c-6.8,0.2-13.2,3-17.8,7.9
	c-0.5,0.6-1,1.1-1.5,1.7c-0.1,0.2-0.3,0.4-0.4,0.6c-0.3,0.4-0.6,0.8-0.9,1.3c-0.1,0.2-0.3,0.4-0.4,0.7c-0.3,0.5-0.6,1-0.8,1.5
	c-0.1,0.3-0.3,0.5-0.4,0.8c-0.3,0.5-0.5,1.1-0.7,1.6c-0.1,0.3-0.2,0.6-0.4,1c-0.1,0.4-0.2,0.7-0.4,1.1c-0.1,0.4-0.2,0.7-0.3,1.1
	c-0.1,0.3-0.2,0.7-0.2,1.1c-0.4,1.9-0.6,3.9-0.6,5.9c0.2,6.8,3,13.2,7.9,17.8c4.8,4.5,11,7,17.6,7h0.7c6.3-0.2,12.3-2.6,16.9-7
	c3.9-3.7,6.5-8.5,7.5-13.8l0.1-0.7l0.7-0.2c0.6-0.1,1.2-0.2,1.8-0.2h0.8l0.7,0.8c1.2,5.1,3.9,9.7,7.9,13.3
	c4.7,4.2,10.7,6.4,16.9,6.4h0.7c6.8-0.2,13.2-3,17.8-7.9c4.7-4.9,7.2-11.3,7-18.1v-0.1C187.8,153.8,184.9,147.5,180,142.8z
	 M125.8,163.8c-0.4,4.5-2.3,8.5-5.4,11.4s-7.2,4.6-11.5,4.7h-0.4c-4.5,0-8.7-1.7-11.9-4.8c-3.4-3.2-5.3-7.5-5.4-12.1s1.6-9,4.8-12.4
	c3.2-3.4,7.5-5.3,12.1-5.4h0.4c4.5,0,8.7,1.7,11.9,4.8c3.4,3.2,5.3,7.5,5.4,12.1c0,0.3,0,0.5,0,0.8V163.8z M175,173.2
	c-3.2,3.4-7.5,5.3-12.1,5.4h-0.4c-4.2,0-8.3-1.6-11.5-4.4c-3.3-2.9-5.3-6.8-5.7-11.2l-0.1-1l0,0c-0.1-5,1.6-9.2,4.8-12.5
	s7.4-5.3,12-5.4l1.1-0.1l0,0c5,0.1,8.3,1.8,11.4,4.8c3.3,3.2,5.2,7.4,5.4,12v1.1C179.6,166.2,177.9,170.1,175,173.2z"/>
<g>
	<g>
		<defs>
			<circle id="SVGID_1_" cx="134.6" cy="134.6" r="120.7"/>
		</defs>
		<clipPath id="SVGID_2_">
			<use xlink:href="#SVGID_1_"  style="overflow:visible;"/>
		</clipPath>
		<path class="st3" d="M239.4,30.2C212.7,3.5,175.8-13.1,135-13.1S57.3,3.4,30.6,30.2C3.8,56.9-12.7,93.9-12.7,134.6
			c0,40.8,16.5,77.7,43.3,104.4c26.7,26.7,63.7,43.3,104.4,43.3c40.8,0,77.7-16.5,104.4-43.3c26.7-26.7,43.3-63.7,43.3-104.4
			C282.7,93.9,266.2,56.9,239.4,30.2z M40.7,133.8c0.2-25.7,10.7-48.9,27.6-65.8c5-5,10.5-9.3,16.5-13.1c0.6-1.6,1.2-3,1.9-4
			l4.2-6.4l0.7,6.5c13-6.7,27.7-10.6,43.4-10.6c5.3,0,10.4,0.5,15.4,1.4l0.1-6.8l3.4,7.3c9.4,1.9,18.3,5.2,26.4,9.7l0.8-7l4.2,6.4
			c0.8,1.3,1.6,3,2.3,5c5.1,3.4,9.8,7.3,14.1,11.6c16.9,16.9,27.4,40.2,27.6,66c0.2,0.1,0.6,0.3,0.8,0.3c2.8,0.6,5-1.2,6.5-3.5
			c0.8-1.2,1-2.3,2.1-3.5l3-3.3l1.5,4.1l0.7,2.9c0.3,3.2-0.3,6.8-2,9.1c-2.9,4.1-8,5-13,4.3c-0.4,3.5-1,7-1.7,10.4
			c2.5,3.6,6.5,4.9,10.8,5.8l3.9,0.7l-2.1,3.4c-3.3,5.4-10.7,5.4-16.6,3.3c-1.8,4.8-4,9.5-6.6,13.9c-0.1,1-0.2,2-0.5,2.8l-3.5,11.2
			l-1-6.4c-3,4.2-6.2,8.1-9.9,11.7C184.6,218.4,161.1,229,135,229c-26,0-49.6-10.6-66.7-27.6c-3-3-5.7-6.2-8.3-9.6l-0.6,3.7
			l-2.4-7.8c-4.1-6-7.5-12.6-10.1-19.5c-5.5,1.4-11.7,0.9-14.7-3.9l-2.1-3.4l3.9-0.7c3.4-0.6,6.7-1.6,9.2-3.8c-0.9-4-1.7-8-2.1-12.2
			c-4.3,0.2-8.4-0.9-10.9-4.5c-1.4-1.9-2.1-4.7-2.1-7.3V131l0.5-2.8l0.2-0.9l1.4-3.8l3,3.3c1.1,1.2,1.3,2.3,2.1,3.5
			C36.7,132.2,38.5,133.7,40.7,133.8z"/>
	</g>
</g>
</svg>
